<?xml version="1.0" encoding="UTF-8" standalone="no"?>
<!DOCTYPE svg PUBLIC "-//W3C//DTD SVG 1.1//EN" "http://www.w3.org/Graphics/SVG/1.1/DTD/svg11.dtd">
<svg height="100%" stroke-miterlimit="10" style="fill-rule:nonzero;clip-rule:evenodd;stroke-linecap:round;stroke-linejoin:round;" version="1.1" viewBox="50.7303 51.8014 926.667 806.086" width="100%" xml:space="preserve" xmlns="http://www.w3.org/2000/svg" xmlns:xlink="http://www.w3.org/1999/xlink">
<defs/>
<g id="Layer">
<g opacity="1">
<path d="M610.78 485.146C679.14 478.791 747.945 476.131 815.861 466.082C837.409 462.893 858.205 454.875 877.922 445.616C899.869 435.31 919.334 420.385 940.04 407.77C929.86 438.488 922.634 470.349 909.499 499.925C899.311 522.865 885.451 544.179 870.503 564.344C858.84 580.078 845.764 595.241 830.113 607.015C814.151 619.025 795.756 627.92 776.971 634.714C760.271 640.754 742.437 643.855 724.724 645.131C705.114 646.544 684.853 647.539 665.792 642.724C605.73 627.551 548.481 602.718 488.953 585.57C467.016 579.251 444.558 573.114 421.74 572.423C407.272 571.984 392.724 576.496 379.444 582.253C354.434 593.095 331.721 608.61 307.86 621.789C346.45 618.799 384.961 611.152 423.631 612.819C449.321 613.926 474.187 622.679 498.831 630.02C551.828 645.809 601.883 672.457 656.327 682.144C692.734 688.621 730.228 679.223 767.178 677.763C759.991 685.577 754.313 695.115 745.616 701.204C721.815 717.865 697.3 734.184 670.513 745.432C634.29 760.642 596.578 773.445 557.85 780.049C522.214 786.125 485.431 786.547 449.442 783.127C413.106 779.673 376.905 771.782 342.504 759.583C299.055 744.175 259.044 720.402 217.314 700.811C203.046 718.372 186.432 734.262 174.51 753.493C155.843 783.605 148.045 820.323 126.021 848.073C118.76 857.222 103.714 859.135 92.1947 857.21C78.8705 854.984 65.2503 847.517 57.3047 836.592C50.6338 827.42 48.9378 813.588 52.6835 802.882C63.3241 772.47 80.9033 744.724 98.8181 717.944C113.971 695.293 132.374 674.854 151.389 655.332C171.496 634.688 192.327 614.358 215.883 597.756C254.919 570.243 294.733 542.806 338.421 523.512C422.525 486.368 512.028 462.773 597.609 429.172C621.595 419.754 644.854 408.179 666.754 394.599C702.192 372.624 738.015 350.484 769.181 322.781C797.713 297.419 819.43 265.297 844.555 236.554C810.807 266.927 777.417 299.266 737.275 320.479C690.239 345.335 640.872 365.502 592.67 388.014C604.195 366.063 617.196 344.827 627.243 322.162C640.831 291.51 648.066 258.108 663.461 228.323C673.397 209.102 686.792 191.332 702.538 176.494C715.819 163.98 732.129 154.438 749.069 147.654C792.292 130.345 839.497 123.737 881.962 104.644C910.917 91.626 934.112 68.3224 961.442 52.1686C963.485 50.9609 966.1 53.0803 968.43 53.5362C974.685 119.042 981.741 185.523 973.996 250.869C971.322 273.432 966.51 296.059 958.006 317.128C951.347 333.625 940.34 348.198 929.135 362.016C921.02 372.025 911.284 380.918 900.529 388.014C883.976 398.936 866.334 408.481 847.846 415.656C829.331 422.841 809.864 427.849 790.227 430.818C758.098 435.675 724.194 429.634 693.095 439.049C662.996 448.162 638.218 469.78 610.78 485.146Z" fill="#50c398" fill-opacity="0.956863" fill-rule="nonzero" opacity="1" stroke="none"/>
<path d="M844.555 234.908C844.555 235.731 844.555 235.731 844.555 236.554C845.378 236.554 845.378 236.554 846.201 236.554C846.201 235.731 846.201 235.731 846.201 234.908C845.378 234.908 845.378 234.908 844.555 234.908Z" fill="#50c398" fill-opacity="0.956863" fill-rule="nonzero" opacity="1" stroke="none"/>
<path d="M660.169 162.471C653.265 182.927 635.578 198.162 626.139 217.579C609.21 252.404 597.747 289.659 581.985 325.028C567.573 357.369 541.304 387.143 513.457 408.465C505.145 414.829 496.439 420.969 486.823 425.105C448.083 441.768 408.391 456.148 368.803 470.684C361.323 473.431 353.418 474.838 345.725 476.914C349.947 455.857 359.74 436.254 364.946 415.418C370.368 393.715 371.951 371.208 376.671 349.342C388.433 294.867 407.232 236.439 457.933 205.83C470.489 198.251 483.876 191.596 498.003 187.66C530.326 178.655 563.511 172.972 596.566 167.209C617.51 163.558 639.322 158.301 660.169 162.471Z" fill="#95da81" fill-opacity="0.956863" fill-rule="nonzero" opacity="1" stroke="none"/>
<path d="M386.883 215.152C374.702 237.565 354.611 270.662 348.027 296.488C337.953 336.002 332.703 376.621 323.219 416.28C317.919 438.44 309.969 460.772 296.653 479.261C265.978 521.853 216.359 546.885 176.156 580.631C151.184 601.594 128.231 624.888 105.365 648.13C97.7454 655.875 92.3862 667.096 82.3169 671.178C90.8814 647.634 95.0926 631.197 109.159 610.438C123.909 588.668 145.42 570.643 154.754 546.059C161.768 527.586 155.76 504.72 158.047 486.792C160.329 468.897 164.851 451.283 170.194 434.052C195.301 353.096 249.965 280.145 325.529 239.957C345.005 229.598 365.224 219.337 386.883 215.152Z" fill="#b7e478" fill-opacity="0.937255" fill-rule="nonzero" opacity="1" stroke="none"/>
<path d="M915.346 608.619C913.544 621.034 913.717 633.901 909.94 645.864C904.609 662.748 897.082 679.002 888.273 694.361C882.426 704.554 874.718 713.727 866.309 721.935C853.416 734.52 839.629 746.349 824.693 756.423C756.744 802.256 677.495 814.754 597.609 819.345C600.228 816.473 601.853 812.163 605.466 810.73C634.092 799.379 664.756 793.53 693.095 781.48C718.85 770.529 743.636 757.102 767.178 741.969C793.439 725.089 818.859 706.608 842.063 685.725C868.419 662.004 890.918 634.321 915.346 608.619Z" fill="#18afae" fill-opacity="0.854902" fill-rule="nonzero" opacity="1" stroke="none"/>
</g>
</g>
</svg>
